<?xml version="1.0" encoding="utf-8"?>
<!-- Generator: Adobe Illustrator 16.0.0, SVG Export Plug-In . SVG Version: 6.00 Build 0)  -->
<!DOCTYPE svg PUBLIC "-//W3C//DTD SVG 1.1//EN" "http://www.w3.org/Graphics/SVG/1.1/DTD/svg11.dtd">
<svg version="1.1" id="Capa_1" xmlns="http://www.w3.org/2000/svg" xmlns:xlink="http://www.w3.org/1999/xlink" x="0px" y="0px"
	 width="611.99px" height="611.99px" viewBox="0 0 611.99 611.99" enable-background="new 0 0 611.99 611.99" xml:space="preserve">
<g>
	<g id="XMLID_1_">
		<g>
			<path fill="#EFC20F" d="M589.105,80.625c30.51,31.13,30.51,81.58,0,112.7l-331.45,338.04c-30.52,31.12-79.97,31.12-110.48,0
				l-124.29-126.78c-30.51-31.109-30.51-81.55,0-112.68c30.51-31.12,79.96-31.12,110.48,0l69.06,70.439l276.2-281.72
				C509.135,49.505,558.595,49.505,589.105,80.625z M561.495,165.145c15.25-15.55,15.25-40.78,0-56.34
				c-15.26-15.55-40-15.55-55.24,0l-303.85,309.88l-96.67-98.601c-15.26-15.55-40-15.55-55.25,0
				c-14.84,15.15-15.24,39.49-1.14,55.11c0.38,0.42,125.45,128.01,125.45,128.01c15.27,15.55,40,15.55,55.25,0
				C235.195,497.955,561.495,165.145,561.495,165.145z"/>
		</g>
		<g>
		</g>
	</g>
</g>
</svg>
