<?xml version="1.0" encoding="utf-8"?>
<!-- Generator: Adobe Illustrator 16.0.0, SVG Export Plug-In . SVG Version: 6.00 Build 0)  -->
<!DOCTYPE svg PUBLIC "-//W3C//DTD SVG 1.1//EN" "http://www.w3.org/Graphics/SVG/1.1/DTD/svg11.dtd">
<svg version="1.1" id="Capa_1" xmlns="http://www.w3.org/2000/svg" xmlns:xlink="http://www.w3.org/1999/xlink" x="0px" y="0px"
	 width="108.651px" height="143.999px" viewBox="71.673 0.001 108.651 143.999"
	 enable-background="new 71.673 0.001 108.651 143.999" xml:space="preserve">
<g>
	<g id="XMLID_1_">
		<g>
			<path fill="#EFC20F" d="M180.32,59.8V108c0,20.89-14.41,36-34.65,36h-9.83c-18.09,0-33.25-11.88-36.95-28.85h-3.78
				c-12.92,0-23.44-10.65-23.44-23.761c0-13.1,10.52-23.75,23.44-23.75h2.06V59.8c0-1.88,2.37-4.04,4.25-4.04h76.36
				C179.65,55.76,180.32,57.93,180.32,59.8z M173.54,108V62.55h-69.58V108c0,16.46,14.77,29.21,31.88,29.21h9.83
				C162.04,137.21,173.54,125.02,173.54,108z M95.11,108.36h2.94c-0.01,0-0.88-0.021-0.88-0.36V74.43h-2.06
				c-9.18,0-16.65,7.61-16.65,16.96C78.46,100.75,85.93,108.36,95.11,108.36z"/>
			<path fill="#EFC20F" d="M154.11,24.57c4.529,4.53,6.64,9.28,6.25,14.12c-0.561,7.08-6.41,11.39-6.66,11.57
				c-0.601,0.44-1.3,0.65-1.99,0.65c-1.05,0-2.08-0.49-2.75-1.41c-1.09-1.51-0.76-3.62,0.75-4.72c0.09-0.07,3.6-2.76,3.89-6.67
				c0.2-2.76-1.239-5.7-4.29-8.74c-4.199-4.2-6.319-8.88-6.29-13.91c0.051-8.27,6.07-14.24,6.32-14.49c1.34-1.31,3.49-1.29,4.8,0.05
				c1.311,1.34,1.29,3.49-0.06,4.8c-0.03,0.03-4.271,4.32-4.271,9.73C149.81,18.67,151.25,21.71,154.11,24.57z"/>
			<path fill="#EFC20F" d="M130.23,28.91c3.729,3.73,5.46,7.67,5.14,11.7c-0.47,5.82-5.03,9.28-5.55,9.65
				c-0.601,0.44-1.301,0.65-1.98,0.65c-1.06,0-2.09-0.49-2.76-1.41c-1.09-1.51-0.76-3.62,0.74-4.72c0.09-0.07,2.59-2.01,2.78-4.75
				c0.141-1.95-0.93-4.08-3.169-6.32c-3.45-3.45-5.19-7.31-5.17-11.48c0.04-6.81,4.99-11.72,5.2-11.93c1.34-1.31,3.49-1.29,4.8,0.05
				c1.311,1.34,1.28,3.49-0.05,4.8C129.07,16.29,123.68,22.36,130.23,28.91z"/>
		</g>
		<g>
		</g>
	</g>
</g>
</svg>
