<?xml version="1.0" encoding="utf-8"?>
<!-- Generator: Adobe Illustrator 16.0.0, SVG Export Plug-In . SVG Version: 6.00 Build 0)  -->
<!DOCTYPE svg PUBLIC "-//W3C//DTD SVG 1.1//EN" "http://www.w3.org/Graphics/SVG/1.1/DTD/svg11.dtd">
<svg version="1.1" id="Capa_1" xmlns="http://www.w3.org/2000/svg" xmlns:xlink="http://www.w3.org/1999/xlink" x="0px" y="0px"
	 width="612px" height="612px" viewBox="0 0 612 612" enable-background="new 0 0 612 612" xml:space="preserve">
<g>
	<g id="XMLID_1_">
		<g>
			<path fill="#F8F8F8" d="M612,76.5v459c0,42.25-34.25,76.5-76.5,76.5h-459C34.25,612,0,577.75,0,535.5v-459
				C0,34.25,34.25,0,76.5,0h459C577.75,0,612,34.25,612,76.5z M573.75,535.5v-459c0-21.13-17.12-38.25-38.25-38.25h-459
				c-21.13,0-38.25,17.14-38.25,38.25v459c0,21.11,17.12,38.25,38.25,38.25h459C556.63,573.75,573.75,556.61,573.75,535.5z"/>
			<path fill="#F8F8F8" d="M516.38,248.62c10.55,0,19.12,8.57,19.12,19.13s-8.57,19.13-19.12,19.13H344.79
				c-5.34,0-10.16-2.2-13.62-5.74c-3.71-3.16-6.05-7.73-6.05-13.39V95.62c0-10.55,8.57-19.12,19.13-19.12s19.13,8.57,19.13,19.12
				l-0.62,125.75L492.58,91.55l27.05,27.04L389.6,248.62H516.38z"/>
			<path fill="#F8F8F8" d="M286.88,344.25v172.13c0,10.55-8.57,19.12-19.13,19.12s-19.13-8.57-19.13-19.12l0.62-125.75
				L119.42,520.45l-27.05-27.04l130.02-130.03H95.62c-10.55,0-19.12-8.57-19.12-19.13s8.57-19.13,19.12-19.13h171.59
				c5.34,0,10.16,2.22,13.62,5.74C284.52,334.02,286.88,338.59,286.88,344.25z"/>
		</g>
		<g>
		</g>
	</g>
</g>
</svg>
