<?xml version="1.0" encoding="utf-8"?>
<!-- Generator: Adobe Illustrator 16.0.0, SVG Export Plug-In . SVG Version: 6.00 Build 0)  -->
<!DOCTYPE svg PUBLIC "-//W3C//DTD SVG 1.1//EN" "http://www.w3.org/Graphics/SVG/1.1/DTD/svg11.dtd">
<svg version="1.1" id="Capa_1" xmlns="http://www.w3.org/2000/svg" xmlns:xlink="http://www.w3.org/1999/xlink" x="0px" y="0px"
	 width="612px" height="612px" viewBox="0 0 612 612" enable-background="new 0 0 612 612" xml:space="preserve">
<g>
	<g id="XMLID_1_">
		<g>
			<path fill="#F8F8F8" d="M530.4,348.86c46.55,9.449,81.6,50.59,81.6,99.939c0,49.351-35.05,90.49-81.6,99.94v22.46
				c0,11.26-9.141,20.399-20.4,20.399s-20.4-9.14-20.4-20.399v-22.46c-46.55-9.45-81.6-50.59-81.6-99.94
				c0-49.35,35.05-90.49,81.6-99.939V40.8c0-11.26,9.141-20.4,20.4-20.4s20.4,9.14,20.4,20.4V348.86z M571.2,448.8
				c0-33.8-27.4-61.2-61.2-61.2s-61.2,27.4-61.2,61.2S476.2,510,510,510S571.2,482.6,571.2,448.8z"/>
			<path fill="#F8F8F8" d="M326.4,63.26c46.55,9.45,81.6,50.59,81.6,99.94c0,49.35-35.05,90.49-81.6,99.94V571.2
				c0,11.26-9.141,20.399-20.4,20.399s-20.4-9.14-20.4-20.399V263.14c-46.55-9.45-81.6-50.59-81.6-99.94
				c0-49.35,35.05-90.49,81.6-99.94V40.8c0-11.26,9.14-20.4,20.4-20.4s20.4,9.14,20.4,20.4V63.26z M367.2,163.2
				c0-33.8-27.4-61.2-61.2-61.2s-61.2,27.4-61.2,61.2c0,33.8,27.4,61.2,61.2,61.2S367.2,197,367.2,163.2z"/>
			<path fill="#F8F8F8" d="M122.4,267.26c46.55,9.45,81.6,50.601,81.6,99.94c0,49.35-35.05,90.5-81.6,99.939V571.2
				c0,11.26-9.14,20.399-20.4,20.399s-20.4-9.14-20.4-20.399V467.14C35.05,457.7,0,416.55,0,367.2c0-49.351,35.05-90.49,81.6-99.94
				V40.8c0-11.26,9.14-20.4,20.4-20.4s20.4,9.14,20.4,20.4V267.26z M163.2,367.2c0-33.8-27.4-61.2-61.2-61.2s-61.2,27.4-61.2,61.2
				s27.4,61.2,61.2,61.2S163.2,401,163.2,367.2z"/>
		</g>
		<g>
		</g>
	</g>
</g>
</svg>
