<?xml version="1.0" encoding="utf-8"?>
<!-- Generator: Adobe Illustrator 16.0.0, SVG Export Plug-In . SVG Version: 6.00 Build 0)  -->
<!DOCTYPE svg PUBLIC "-//W3C//DTD SVG 1.1//EN" "http://www.w3.org/Graphics/SVG/1.1/DTD/svg11.dtd">
<svg version="1.1" id="Capa_1" xmlns="http://www.w3.org/2000/svg" xmlns:xlink="http://www.w3.org/1999/xlink" x="0px" y="0px"
	 width="612.02px" height="612.02px" viewBox="0 0 612.02 612.02" enable-background="new 0 0 612.02 612.02" xml:space="preserve">
<g>
	<g id="XMLID_1_">
		<g>
			<path fill="#F8F8F8" d="M606.58,178.14c11.18,19.52,4.55,44.47-14.811,55.73l-47.37,27.58c2.67,14.49,4.41,29.3,4.41,44.56
				c0,15.28-1.76,30.07-4.41,44.55l47.37,27.59c19.36,11.261,25.99,36.21,14.771,55.75l-40.45,70.67
				c-11.18,19.5-35.93,26.19-55.29,14.931l-47.86-27.86c-22.35,19.19-47.77,34.88-76.029,44.96v34.62c0,22.53-18.11,40.8-40.45,40.8
				h-80.93c-22.34,0-40.46-18.279-40.46-40.8v-34.64c-28.25-10.08-53.67-25.771-76.03-44.96l-47.86,27.859
				c-19.34,11.271-44.09,4.57-55.27-14.93L5.44,433.88c-11.18-19.5-4.55-44.47,14.81-55.73l47.37-27.58
				c-2.67-14.489-4.41-29.3-4.41-44.56s1.76-30.07,4.41-44.55l-47.37-27.59C0.89,222.61-5.74,197.64,5.44,178.14l40.47-70.67
				c11.16-19.52,35.91-26.19,55.27-14.93l47.86,27.86c22.38-19.19,47.8-34.88,76.07-44.98V40.8c0-22.52,18.12-40.8,40.46-40.8h80.93
				c22.33,0,40.45,18.26,40.45,40.8v34.64c28.26,10.08,53.68,25.77,76.029,44.96l47.86-27.86c19.36-11.26,44.11-4.59,55.29,14.93
				L606.58,178.14z M554.05,208.74c9.67-5.63,13-18.12,7.41-27.87l-20.24-35.33c-5.59-9.75-17.97-13.1-27.64-7.47l-56.21,32.72
				c-28.54-32.43-67.101-55.73-110.88-64.69V61.2c0-11.26-9.051-20.4-20.23-20.4h-40.48c-11.18,0-20.24,9.14-20.24,20.4v44.9
				c-43.77,8.96-82.33,32.24-110.85,64.69l-56.21-32.72c-9.69-5.63-22.05-2.28-27.64,7.47L50.6,180.87
				c-5.59,9.75-2.28,22.24,7.39,27.85l56.45,32.87c-6.73,20.29-10.75,41.84-10.75,64.42s4.04,44.13,10.75,64.41l-56.43,32.859
				c-9.67,5.631-13,18.12-7.41,27.87l20.2,35.33c5.59,9.75,17.97,13.101,27.64,7.471l56.21-32.721
				c28.54,32.45,67.1,55.73,110.88,64.69v44.899c0,11.261,9.05,20.4,20.23,20.4h40.48c11.18,0,20.229-9.14,20.229-20.4V505.92
				c43.78-8.96,82.34-32.24,110.88-64.69l56.21,32.721c9.69,5.63,22.05,2.279,27.641-7.471l20.239-35.33
				c5.59-9.75,2.261-22.239-7.39-27.87L497.6,370.42c6.73-20.3,10.75-41.83,10.75-64.41c0-22.56-4.02-44.11-10.75-64.4
				L554.05,208.74z"/>
			<path fill="#F8F8F8" d="M407.189,306.01c0,56.33-45.29,102-101.17,102s-101.17-45.67-101.17-102s45.29-102,101.17-102
				C361.88,204.01,407.17,249.68,407.189,306.01z M366.71,306.01c0-33.8-27.17-61.2-60.69-61.2c-33.52,0-60.69,27.4-60.69,61.2
				c0,33.81,27.17,61.2,60.69,61.2C339.54,367.21,366.71,339.81,366.71,306.01z"/>
		</g>
		<g>
		</g>
	</g>
</g>
</svg>
