<?xml version="1.0" encoding="utf-8"?>
<!-- Generator: Adobe Illustrator 16.0.0, SVG Export Plug-In . SVG Version: 6.00 Build 0)  -->
<!DOCTYPE svg PUBLIC "-//W3C//DTD SVG 1.1//EN" "http://www.w3.org/Graphics/SVG/1.1/DTD/svg11.dtd">
<svg version="1.1" id="Capa_1" xmlns="http://www.w3.org/2000/svg" xmlns:xlink="http://www.w3.org/1999/xlink" x="0px" y="0px"
	 width="612px" height="612px" viewBox="0 0 612 612" enable-background="new 0 0 612 612" xml:space="preserve">
<g>
	<g id="XMLID_1_">
		<g>
			<rect x="497.25" y="286.88" fill="#EFC20F" width="38.25" height="38.24"/>
			<path fill="#EFC20F" d="M306,0c169.01,0,306,137.01,306,306S475.01,612,306,612S0,475.01,0,306C0,137.01,136.99,0,306,0z
				 M573.75,306c0-147.88-119.87-267.75-267.75-267.75S38.25,158.12,38.25,306S158.12,573.75,306,573.75S573.75,453.88,573.75,306z"
				/>
			<polygon fill="#EFC20F" points="448.67,131.69 475.14,158.22 448.67,184.75 422.2,158.22 			"/>
			<polygon fill="#EFC20F" points="470.69,435.63 443.64,462.67 416.6,435.63 443.64,408.59 			"/>
			<rect x="286.88" y="497.25" fill="#EFC20F" width="38.24" height="38.25"/>
			<path fill="#EFC20F" d="M325.12,95.62v210.84c0,10.56-8.561,19.12-19.12,19.12H133.88c-10.56,0-19.13-8.561-19.13-19.12
				c0-10.56,8.57-19.13,19.13-19.13h153V95.62c0-10.55,8.56-19.12,19.12-19.12C316.56,76.5,325.12,85.07,325.12,95.62z"/>
			<polygon fill="#EFC20F" points="185.38,159.18 158.32,186.22 131.27,159.18 158.32,132.13 			"/>
			<polygon fill="#EFC20F" points="155.24,410.14 181.71,436.66 155.24,463.19 128.77,436.66 			"/>
		</g>
		<g>
		</g>
	</g>
</g>
</svg>
