<?xml version="1.0" encoding="utf-8"?>
<!-- Generator: Adobe Illustrator 16.0.0, SVG Export Plug-In . SVG Version: 6.00 Build 0)  -->
<!DOCTYPE svg PUBLIC "-//W3C//DTD SVG 1.1//EN" "http://www.w3.org/Graphics/SVG/1.1/DTD/svg11.dtd">
<svg version="1.1" id="Capa_1" xmlns="http://www.w3.org/2000/svg" xmlns:xlink="http://www.w3.org/1999/xlink" x="0px" y="0px"
	 width="612px" height="612px" viewBox="0 0 612 612" enable-background="new 0 0 612 612" xml:space="preserve">
<g>
	<g id="XMLID_1_">
		<g>
			<path fill="#EFC20F" d="M612,172.12v344.26c0,42.24-34.25,76.5-76.5,76.5h-459c-42.25,0-76.5-34.26-76.5-76.5V172.12
				c0-42.24,34.25-76.5,76.5-76.5h114.75V57.38c0-21.12,17.12-38.26,38.25-38.26h153c21.13,0,38.25,17.12,38.25,38.26v38.24H535.5
				C577.75,95.62,612,129.88,612,172.12z M573.75,516.38V306H379.8c1.59,6.14,2.7,12.49,2.7,19.12c0,42.25-34.25,76.5-76.5,76.5
				s-76.5-34.25-76.5-76.5c0-6.63,1.11-12.96,2.7-19.12H38.25v210.38c0,21.11,17.12,38.24,38.25,38.24h459
				C556.63,554.62,573.75,537.49,573.75,516.38z M573.75,267.75v-95.63c0-21.13-17.12-38.24-38.25-38.24h-459
				c-21.13,0-38.25,17.11-38.25,38.24v95.63H573.75z M382.5,95.62V76.5c0-10.56-8.57-19.12-19.12-19.12H248.62
				c-10.55,0-19.12,8.56-19.12,19.12v19.12H382.5z M344.25,325.12c0-7-2.03-13.48-5.32-19.12h-65.88c-3.27,5.64-5.3,12.12-5.3,19.12
				c0,21.14,17.12,38.26,38.25,38.26C327.11,363.38,344.25,346.26,344.25,325.12z"/>
		</g>
		<g>
		</g>
	</g>
</g>
</svg>
