<?xml version="1.0" encoding="utf-8"?>
<!-- Generator: Adobe Illustrator 16.0.0, SVG Export Plug-In . SVG Version: 6.00 Build 0)  -->
<!DOCTYPE svg PUBLIC "-//W3C//DTD SVG 1.1//EN" "http://www.w3.org/Graphics/SVG/1.1/DTD/svg11.dtd">
<svg version="1.1" id="Capa_1" xmlns="http://www.w3.org/2000/svg" xmlns:xlink="http://www.w3.org/1999/xlink" x="0px" y="0px"
	 width="612px" height="612px" viewBox="0 0 612 612" enable-background="new 0 0 612 612" xml:space="preserve">
<g>
	<g id="XMLID_1_">
		<g>
			<path fill="#F8F8F8" d="M612,76.5v306c0,42.25-34.25,76.5-76.5,76.5h-306c-42.25,0-76.5-34.25-76.5-76.5v-306
				C153,34.25,187.25,0,229.5,0h306C577.75,0,612,34.25,612,76.5z M573.75,382.5v-306c0-21.13-17.12-38.25-38.25-38.25h-306
				c-21.13,0-38.25,17.12-38.25,38.25v306c0,21.11,17.12,38.25,38.25,38.25h306C556.63,420.75,573.75,403.61,573.75,382.5z"/>
			<path fill="#F8F8F8" d="M459,497.25v38.25c0,42.25-34.25,76.5-76.5,76.5h-306C34.25,612,0,577.75,0,535.5v-306
				C0,187.25,34.25,153,76.5,153h38.25v38.25H76.5c-21.13,0-38.25,17.12-38.25,38.25v306c0,21.13,17.12,38.25,38.25,38.25h306
				c21.13,0,38.25-17.14,38.25-38.25v-38.25H459z"/>
		</g>
		<g>
		</g>
	</g>
</g>
</svg>
